<svg t="1698324020756" class="icon" viewBox="0 0 1024 1024" version="1.1" xmlns="http://www.w3.org/2000/svg" p-id="1050" width="200" height="200"><path d="M899.22 394.39L896 354.13a194.89 194.89 0 0 0-178.75-178.75L677 172.17c-48-3.84-115.87-5.76-164-5.76s-116 1.92-164 5.76l-40.26 3.21A194.89 194.89 0 0 0 130 354.13l-3.52 44c-3.58 44.75-3.58 118 0 162.73l3.52 44a194.89 194.89 0 0 0 178.74 178.81l40.26 3.21c20.19 1.62 43.87 2.89 68.12 3.82l64.68 57.79a51.69 51.69 0 0 0 68.89 0l65-58.06c21.87-0.9 43.06-2.09 61.35-3.55l40.25-3.21A194.89 194.89 0 0 0 896 604.92l3.22-40.25c4.08-26.85 3.83-122.27 0-170.28z" fill="#A3A5AF" p-id="1051"></path><path d="M295.43 487.5m-58.45 0a58.45 58.45 0 1 0 116.9 0 58.45 58.45 0 1 0-116.9 0Z" fill="#333333" p-id="1052"></path><path d="M512.99 487.5m-58.45 0a58.45 58.45 0 1 0 116.9 0 58.45 58.45 0 1 0-116.9 0Z" fill="#333333" p-id="1053"></path><path d="M730.55 487.5m-58.45 0a58.45 58.45 0 1 0 116.9 0 58.45 58.45 0 1 0-116.9 0Z" fill="#333333" p-id="1054"></path></svg>
